<svg width="128" height="128" xmlns="http://www.w3.org/2000/svg">
  <rect width="128" height="128" fill="#e0e0e0"/>
  <!-- Row 1 -->
  <rect x="0" y="0" width="38" height="18" fill="#e04e2c" stroke="#751c00" stroke-width="1"/>
  <rect x="42" y="0" width="38" height="18" fill="#bf360c" stroke="#751c00" stroke-width="1"/>
  <rect x="84" y="0" width="38" height="18" fill="#e04e2c" stroke="#751c00" stroke-width="1"/>
  <!-- Row 2 (offset) -->
  <rect x="14" y="22" width="38" height="18" fill="#bf360c" stroke="#751c00" stroke-width="1"/>
  <rect x="56" y="22" width="38" height="18" fill="#e04e2c" stroke="#751c00" stroke-width="1"/>
  <rect x="98" y="22" width="38" height="18" fill="#ff7043" stroke="#751c00" stroke-width="1"/>
  <!-- Row 3 -->
  <rect x="0" y="44" width="38" height="18" fill="#e04e2c" stroke="#751c00" stroke-width="1"/>
  <rect x="42" y="44" width="38" height="18" fill="#e04e2c" stroke="#751c00" stroke-width="1"/>
  <rect x="84" y="44" width="38" height="18" fill="#bf360c" stroke="#751c00" stroke-width="1"/>
  <!-- Row 4 (offset) -->
  <rect x="14" y="66" width="38" height="18" fill="#e04e2c" stroke="#751c00" stroke-width="1"/>
  <rect x="56" y="66" width="38" height="18" fill="#bf360c" stroke="#751c00" stroke-width="1"/>
  <rect x="98" y="66" width="38" height="18" fill="#e04e2c" stroke="#751c00" stroke-width="1"/>
  <!-- Row 5 -->
  <rect x="0" y="88" width="38" height="18" fill="#e04e2c" stroke="#751c00" stroke-width="1"/>
  <rect x="42" y="88" width="38" height="18" fill="#e04e2c" stroke="#751c00" stroke-width="1"/>
  <rect x="84" y="88" width="38" height="18" fill="#bf360c" stroke="#751c00" stroke-width="1"/>
  <!-- Row 6 (offset) -->
  <rect x="14" y="110" width="38" height="18" fill="#e04e2c" stroke="#751c00" stroke-width="1"/>
  <rect x="56" y="110" width="38" height="18" fill="#e04e2c" stroke="#751c00" stroke-width="1"/>
  <rect x="98" y="110" width="38" height="18" fill="#bf360c" stroke="#751c00" stroke-width="1"/>
</svg>

